<!DOCTYPE svg PUBLIC "-//W3C//DTD SVG 1.1//EN" "http://www.w3.org/Graphics/SVG/1.1/DTD/svg11.dtd">
<!-- Uploaded to: SVG Repo, www.svgrepo.com, Transformed by: SVG Repo Mixer Tools -->
<svg fill="#ffd100" height="800px" width="800px" version="1.1" id="Layer_1" xmlns="http://www.w3.org/2000/svg" xmlns:xlink="http://www.w3.org/1999/xlink" viewBox="0 0 512 512" xml:space="preserve" stroke="#ffd100">
<g id="SVGRepo_bgCarrier" stroke-width="0"/>
<g id="SVGRepo_tracerCarrier" stroke-linecap="round" stroke-linejoin="round"/>
<g id="SVGRepo_iconCarrier"> <g> <g> <path d="M288.678,6.5H68.547c-23.034,0-41.772,18.739-41.772,41.772v28.519c-0.001,23.033,18.738,41.772,41.772,41.772h220.131 c23.034,0,41.772-18.739,41.772-41.772V48.273C330.45,25.239,311.711,6.5,288.678,6.5z M296.976,76.792 c0,4.577-3.723,8.299-8.299,8.299H68.547c-4.577,0-8.299-3.723-8.299-8.299V48.273h-0.001c0-4.577,3.723-8.299,8.299-8.299 h220.131c4.577,0,8.299,3.723,8.299,8.299V76.792z"/> </g> </g> <g> <g> <path d="M356.069,193.639c-15.072,0-29.648,2.157-43.446,6.166v-22.048c0-23.034-18.739-41.772-41.772-41.772H50.72 c-23.034,0-41.772,18.739-41.772,41.772v28.518c0,23.035,18.739,41.773,41.772,41.773h187.094 c-4.72,5.49-9.068,11.308-12.998,17.419H80.573c-21.734,0-39.416,17.683-39.416,39.417v33.23 c0,21.734,17.683,39.416,39.416,39.416h122.081c0.982,5.404,2.249,10.708,3.776,15.904H39.417C17.683,393.436,0,411.118,0,432.853 v33.23c0,21.734,17.683,39.417,39.417,39.417H264.26c11.533,0,22.057-4.991,29.327-13.082 c19.14,8.405,40.274,13.082,62.482,13.082c85.98,0,155.931-69.95,155.931-155.931S442.05,193.639,356.069,193.639z M50.72,214.575 c-4.577,0.001-8.299-3.722-8.299-8.3v-28.518c0-4.577,3.723-8.299,8.299-8.299h220.131c4.577,0,8.299,3.723,8.299,8.299v28.518 c0,4.578-3.723,8.3-8.299,8.3H50.72z M200.553,338.244c-0.004,0.065-0.008,0.129-0.012,0.194c-0.117,1.659-0.205,3.326-0.27,5 c-0.008,0.208-0.026,0.414-0.033,0.621H80.573c-3.277-0.001-5.943-2.667-5.943-5.944v-33.23c0-3.278,2.667-5.944,5.943-5.944 h128.002c-0.027,0.077-0.048,0.155-0.075,0.232c-0.582,1.702-1.133,3.419-1.658,5.147c-0.022,0.074-0.044,0.148-0.066,0.222 C203.515,315.335,201.392,326.613,200.553,338.244z M39.417,472.028v-0.001c-3.278,0-5.944-2.667-5.944-5.944v-33.23 c0-3.278,2.667-5.944,5.944-5.944H220.64c9.972,17.467,23.133,32.731,38.86,45.119H39.417z M356.069,472.027 c-71.96,0-128.644-62.087-121.921-133.876c0.009-0.098,0.017-0.196,0.026-0.295c6.021-62.688,58.898-110.744,121.894-110.744 c67.523,0,122.457,54.934,122.457,122.457S423.593,472.027,356.069,472.027z"/> </g> </g> <g> <g> <path d="M362.843,330.666v-30.741c13.686,1.052,17.686,7.79,24.634,7.79c9.264,0,13.053-11.581,13.053-17.266 c0-14.529-24.634-17.897-37.688-18.319v-5.264c0-2.948-4.001-5.685-8.001-5.685c-4.633,0-8.001,2.737-8.001,5.685v5.896 c-22.319,3.158-42.11,16.002-42.11,42.742c0,26.95,22.739,36.006,42.11,43.375v34.109c-15.582-2.737-22.741-15.16-31.583-15.16 c-8.001,0-14.318,10.529-14.318,17.687c0,13.475,20.634,26.529,45.901,27.371v5.264c0,2.948,3.369,5.685,8.001,5.685 c4,0,8.001-2.737,8.001-5.685v-6.107c24.634-4,41.479-19.792,41.479-45.901C404.322,347.722,382.003,337.825,362.843,330.666z M348.946,325.614c-8.001-3.37-13.475-7.159-13.475-13.265c0-5.053,4.001-9.896,13.475-11.79V325.614z M360.738,392.779v-28.214 c7.581,3.579,12.844,8.001,12.844,14.949C373.58,387.096,367.897,391.097,360.738,392.779z"/> </g> </g> </g>
</svg>